<svg viewBox="0 0 1024 1024" xmlns="http://www.w3.org/2000/svg"><path d="M877.653333 0c58.026667 0 106.24 47.104 109.568 107.52l0.256 6.741333v152.149334c22.357333 21.589333 36.522667 53.077333 36.522667 87.978666v367.104c0 146.346667-97.28 271.786667-231.082667 297.728-133.802667 25.941333-265.642667-55.04-313.002666-192.256H109.653333c-58.026667 0-106.154667-47.104-109.482666-107.52L0 712.704V114.346667C0 52.906667 46.08 3.669333 103.253333 0.170667L109.653333 0h768zM561.664 306.602667a35.242667 35.242667 0 0 0-25.941333 11.52 40.96 40.96 0 0 0-10.666667 27.904v379.050666c1.536 122.282667 104.533333 220.586667 218.112 220.586667 113.664 0 217.173333-98.304 218.709333-220.586667V346.026667a40.96 40.96 0 0 0-10.666666-27.818667 35.242667 35.242667 0 0 0-25.941334-11.52H561.664z m323.157333-235.52H102.741333a36.096 36.096 0 0 0-36.266666 31.402666l-0.256 4.010667V717.653333c0 17.749333 13.738667 33.109333 32.170666 35.242667l4.352 0.256h360.704a322.474667 322.474667 0 0 1-1.024-26.709333l-0.085333-371.968c0-62.549333 45.312-114.261333 103.253333-117.930667l6.4-0.170667h349.44v-129.706666a36.010667 36.010667 0 0 0-32.256-35.242667l-4.266666-0.256z" fill="#bb86fc"/><path d="M256 551.253333v78.762667h-73.130667V551.253333zM462.336 551.253333v78.762667h-133.12V551.253333zM768 393.813333V551.253333h-73.130667V393.813333zM256 354.389333v78.762667h-73.130667v-78.762667zM402.261333 354.389333v78.762667h-73.130666v-78.762667zM256 157.525333v78.762667h-73.130667v-78.762667zM402.261333 157.525333v78.762667h-73.130666v-78.762667zM548.522667 157.525333v78.762667h-73.045334v-78.762667h72.96z" fill="#03dac6"/></svg>
